/* XPM */
static char *st[] = {
/* columns rows colors chars-per-pixel */
"48 40 2 1 ",
"  c #222222",
". c white",
/* pixels */
"................................................",
"................................................",
"................................................",
"................................................",
"................................................",
"................................................",
"................................................",
"................................................",
"................................................",
"................................................",
"................................................",
"................................................",
"................................................",
"................................................",
"................................................",
"................................................",
"........                                        ",
"........                                        ",
"........                                        ",
"........                                        ",
"........                                        ",
"........                                        ",
"........                                        ",
"........                                        ",
"........        ................        ........",
"........        ................        ........",
"........        ................        ........",
"........        ................        ........",
"........        ................        ........",
"........        ................        ........",
"........        ................        ........",
"........        ................        ........",
"                ................        ........",
"                ................        ........",
"                ................        ........",
"                ................        ........",
"                ................        ........",
"                ................        ........",
"                ................        ........",
"                ................        ........"
};
